<svg width="100%" height="100%" viewBox="0 0 1000 1000">
    <g transform="matrix(1,0,0,1,9.81259,1.25414)" stroke-width="11.83" stroke="currentColor">
        <g transform="matrix(2.28918,0,0,2.28918,-656.664,-602.93)">
            <path d="M495.972,389.391L628.986,352.4"/>
        </g>
        <g transform="matrix(2.28918,0,0,2.28918,-656.664,-602.93)">
            <path d="M475.825,305.843L475.352,378.055"/>
        </g>
        <g transform="matrix(2.28918,0,0,2.28918,-656.664,-602.93)">
            <path d="M328.32,430.944L463.267,396.185"/>
        </g>
        <g transform="matrix(1.79547,0,0,1.79547,-458.946,-355.147)">
            <circle cx="424.331" cy="529.845" r="20.246"/>
        </g>
        <g transform="matrix(1.79547,0,0,1.79547,-319.449,-648.511)">
            <circle cx="424.331" cy="529.845" r="20.246"/>
        </g>
        <g transform="matrix(1.79547,0,0,1.79547,-70.3149,-386.366)">
            <circle cx="424.331" cy="529.845" r="20.246"/>
        </g>
        <g transform="matrix(1.79547,0,0,1.79547,61.4009,-752.867)">
            <circle cx="424.331" cy="529.845" r="20.246"/>
        </g>
        <g transform="matrix(1.79547,0,0,1.79547,161.469,-316.325)">
            <circle cx="424.331" cy="529.845" r="20.246"/>
        </g>
        <g transform="matrix(1.79547,0,0,1.79547,-155.312,-16.4346)">
            <circle cx="424.331" cy="529.845" r="20.246"/>
        </g>
        <g transform="matrix(1.79547,0,0,1.79547,-591.792,-161.37)">
            <circle cx="424.331" cy="529.845" r="20.246"/>
        </g>
        <g transform="matrix(1.79547,0,0,1.79547,-704.839,-556.182)">
            <circle cx="424.331" cy="529.845" r="20.246"/>
        </g>
        <g transform="matrix(1.79547,0,0,1.79547,-344.811,-888.714)">
            <circle cx="424.331" cy="529.845" r="20.246"/>
        </g>
        <g transform="matrix(2.18448,0.0948757,0.0948757,2.20321,-662.701,-597.46)">
            <path d="M324.543,421.779L466.925,288.759"/>
        </g>
        <g transform="matrix(2.28918,0,0,2.28918,-656.664,-602.93)">
            <path d="M631.903,340.875L485.204,292.347"/>
        </g>
        <g transform="matrix(2.28918,0,0,2.28918,-656.664,-602.93)">
            <path d="M325.097,446.836L406.7,513.268"/>
        </g>
        <g transform="matrix(2.28918,0,0,2.28918,-656.664,-602.93)">
            <path d="M473.611,411.9C473.611,411.9 441.211,476.138 425.011,508.257"/>
        </g>
        <g transform="matrix(2.28918,0,0,2.28918,-656.664,-602.93)">
            <path d="M435.915,522.862L571.909,509.846"/>
        </g>
        <g transform="matrix(2.28918,0,0,2.28918,-656.664,-602.93)">
            <path d="M494.327,405.829L579.935,496.783"/>
        </g>
        <g transform="matrix(2.28918,0,0,2.28918,-656.664,-602.93)">
            <path d="M641.31,366.75L595.752,494.434"/>
        </g>
        <g transform="matrix(2.28918,0,0,2.28918,-656.664,-602.93)">
            <path d="M604.405,515.96L673.476,534.143"/>
        </g>
        <g transform="matrix(2.28918,0,0,2.28918,-656.664,-602.93)">
            <path d="M654.736,364.188L687.339,524.683"/>
        </g>
        <g transform="matrix(2.28918,0,0,2.28918,-656.664,-602.93)">
            <path d="M315.01,452.329L351.742,595.807"/>
        </g>
        <g transform="matrix(2.28918,0,0,2.28918,-656.664,-602.93)">
            <path d="M370.178,595.343L410.966,537.907"/>
        </g>
        <g transform="matrix(2.28918,0,0,2.28918,-656.664,-602.93)">
            <path d="M431.523,535.662L540.575,658.353"/>
        </g>
        <g transform="matrix(2.28918,0,0,2.28918,-656.664,-602.93)">
            <path d="M593.453,526.777L555.327,655.148"/>
        </g>
        <g transform="matrix(2.28918,0,0,2.28918,-656.664,-602.93)">
            <path d="M564.835,660.295L677.925,553.391"/>
        </g>
        <g transform="matrix(2.28918,0,0,2.28918,-656.664,-602.93)">
            <path d="M375.232,615.508L534.288,668.68"/>
        </g>
    </g>
</svg>
