<svg width="100%" height="100%" viewBox="0 0 240 240" version="1.1" xmlns="http://www.w3.org/2000/svg" xmlns:xlink="http://www.w3.org/1999/xlink" xml:space="preserve" xmlns:serif="http://www.serif.com/" style="fill-rule:evenodd;clip-rule:evenodd;stroke-linecap:round;stroke-linejoin:round;stroke-miterlimit:1.5;">
    <path d="M228,33.6c0,-11.921 -9.679,-21.6 -21.6,-21.6l-172.8,0c-11.921,0 -21.6,9.679 -21.6,21.6l-0,172.8c-0,11.921 9.679,21.6 21.6,21.6l172.8,0c11.921,0 21.6,-9.679 21.6,-21.6l0,-172.8Z" style="fill:#000222;"/>
    <g>
        <path d="M118.006,83.48l52.88,-14.706" style="fill:none;stroke:#fff;stroke-width:6.5px;"/>
        <path d="M109.996,50.265l-0.188,28.708" style="fill:none;stroke:#fff;stroke-width:6.5px;"/>
        <path d="M51.356,99.999l53.648,-13.818" style="fill:none;stroke:#fff;stroke-width:6.5px;"/>
        <circle cx="87.479" cy="136.92" r="6.313" style="fill:none;stroke:#fff;stroke-width:6.5px;"/>
        <circle cx="111.705" cy="85.973" r="6.313" style="fill:none;stroke:#fff;stroke-width:6.5px;"/>
        <circle cx="154.971" cy="131.498" r="6.313" style="fill:none;stroke:#fff;stroke-width:6.5px;"/>
        <circle cx="177.846" cy="67.849" r="6.313" style="fill:none;stroke:#fff;stroke-width:6.5px;"/>
        <circle cx="195.224" cy="143.662" r="6.313" style="fill:none;stroke:#fff;stroke-width:6.5px;"/>
        <circle cx="140.21" cy="195.742" r="6.313" style="fill:none;stroke:#fff;stroke-width:6.5px;"/>
        <circle cx="64.408" cy="170.572" r="6.313" style="fill:none;stroke:#fff;stroke-width:6.5px;"/>
        <circle cx="44.776" cy="102.007" r="6.313" style="fill:none;stroke:#fff;stroke-width:6.5px;"/>
        <circle cx="107.3" cy="44.258" r="6.313" style="fill:none;stroke:#fff;stroke-width:6.5px;"/>
        <path d="M49.854,96.356l51.823,-48.551" style="fill:none;stroke:#fff;stroke-width:6.5px;"/>
        <path d="M172.045,64.192l-58.32,-19.292" style="fill:none;stroke:#fff;stroke-width:6.5px;"/>
        <path d="M50.074,106.317l32.442,26.41" style="fill:none;stroke:#fff;stroke-width:6.5px;"/>
        <path d="M109.116,92.429c0,-0 -12.88,25.537 -19.321,38.306" style="fill:none;stroke:#fff;stroke-width:6.5px;"/>
        <path d="M94.13,136.541l54.065,-5.174" style="fill:none;stroke:#fff;stroke-width:6.5px;"/>
        <path d="M117.352,90.015l34.033,36.159" style="fill:none;stroke:#fff;stroke-width:6.5px;"/>
        <path d="M175.785,74.479l-18.111,50.761" style="fill:none;stroke:#fff;stroke-width:6.5px;"/>
        <path d="M161.114,133.798l27.459,7.228" style="fill:none;stroke:#fff;stroke-width:6.5px;"/>
        <path d="M181.123,73.46l12.961,63.805" style="fill:none;stroke:#fff;stroke-width:6.5px;"/>
        <path d="M46.064,108.501l14.603,57.04" style="fill:none;stroke:#fff;stroke-width:6.5px;"/>
        <path d="M67.996,165.357l16.216,-22.834" style="fill:none;stroke:#fff;stroke-width:6.5px;"/>
        <path d="M92.384,141.63l43.354,48.776" style="fill:none;stroke:#fff;stroke-width:6.5px;"/>
        <path d="M156.76,138.098l-15.157,51.034" style="fill:none;stroke:#fff;stroke-width:6.5px;"/>
        <path d="M145.382,191.178l44.96,-42.499" style="fill:none;stroke:#fff;stroke-width:6.5px;"/>
        <path d="M70.005,173.373l63.234,21.139" style="fill:none;stroke:#fff;stroke-width:6.5px;"/>
    </g>
</svg>