<svg clip-rule="evenodd" fill-rule="evenodd" stroke-linecap="round" stroke-linejoin="round" stroke-miterlimit="1.5" viewBox="0 0 400 100" xmlns="http://www.w3.org/2000/svg"><g fill="none" stroke="#000"><path d="m495.972 389.391 133.014-36.991" stroke-width="11.83" transform="matrix(.10314198083 0 0 .10314198083 -.44748118438 .36256194908)"/><path d="m475.825 305.843-.473 72.212" stroke-width="11.83" transform="matrix(.10314198083 0 0 .10314198083 -.44748118438 .36256194908)"/><path d="m328.32 430.944 134.947-34.759" stroke-width="11.83" transform="matrix(.10314198083 0 0 .10314198083 -.44748118438 .36256194908)"/><circle cx="42.78816494725" cy="54.38974258989" r="1.63784541902" stroke-width="1.21993030321"/><circle cx="49.07338362835" cy="41.17184619669" r="1.63784541902" stroke-width="1.21993030321"/><circle cx="60.29844437818" cy="52.98312996019" r="1.63784541902" stroke-width="1.21993030321"/><circle cx="66.23307097772" cy="36.46995095389" r="1.63784541902" stroke-width="1.21993030321"/><circle cx="70.74176931175" cy="56.13891826849" r="1.63784541902" stroke-width="1.21993030321"/><circle cx="56.46878954145" cy="69.65087009801" r="1.63784541902" stroke-width="1.21993030321"/><circle cx="36.80261571745" cy="63.12061723499" r="1.63784541902" stroke-width="1.21993030321"/><circle cx="31.70913617135" cy="45.33184931939" r="1.63784541902" stroke-width="1.21993030321"/><circle cx="47.93066574775" cy="30.34918776779" r="1.63784541902" stroke-width="1.21993030321"/><path d="m324.543 421.779 142.382-133.02" stroke-width="11.83" transform="matrix(.09842458622 .004274748 .004274748 .09926849072 -.71948606748 .60901991008)"/><path d="m631.903 340.875-146.699-48.528" stroke-width="11.83" transform="matrix(.10314198083 0 0 .10314198083 -.44748118438 .36256194908)"/><path d="m325.097 446.836 81.603 66.432" stroke-width="11.83" transform="matrix(.10314198083 0 0 .10314198083 -.44748118438 .36256194908)"/><path d="m473.611 411.9s-32.4 64.238-48.6 96.357" stroke-width="11.83" transform="matrix(.10314198083 0 0 .10314198083 -.44748118438 .36256194908)"/><path d="m435.915 522.862 135.994-13.016" stroke-width="11.83" transform="matrix(.10314198083 0 0 .10314198083 -.44748118438 .36256194908)"/><path d="m494.327 405.829 85.608 90.954" stroke-width="11.83" transform="matrix(.10314198083 0 0 .10314198083 -.44748118438 .36256194908)"/><path d="m641.31 366.75-45.558 127.684" stroke-width="11.83" transform="matrix(.10314198083 0 0 .10314198083 -.44748118438 .36256194908)"/><path d="m604.405 515.96 69.071 18.183" stroke-width="11.83" transform="matrix(.10314198083 0 0 .10314198083 -.44748118438 .36256194908)"/><path d="m654.736 364.188 32.603 160.495" stroke-width="11.83" transform="matrix(.10314198083 0 0 .10314198083 -.44748118438 .36256194908)"/><path d="m315.01 452.329 36.732 143.478" stroke-width="11.83" transform="matrix(.10314198083 0 0 .10314198083 -.44748118438 .36256194908)"/><path d="m370.178 595.343 40.788-57.436" stroke-width="11.83" transform="matrix(.10314198083 0 0 .10314198083 -.44748118438 .36256194908)"/><path d="m431.523 535.662 109.052 122.691" stroke-width="11.83" transform="matrix(.10314198083 0 0 .10314198083 -.44748118438 .36256194908)"/><path d="m593.453 526.777-38.126 128.371" stroke-width="11.83" transform="matrix(.10314198083 0 0 .10314198083 -.44748118438 .36256194908)"/><path d="m564.835 660.295 113.09-106.904" stroke-width="11.83" transform="matrix(.10314198083 0 0 .10314198083 -.44748118438 .36256194908)"/><path d="m375.232 615.508 159.056 53.172" stroke-width="11.83" transform="matrix(.10314198083 0 0 .10314198083 -.44748118438 .36256194908)"/></g><text font-family="Gravidaz" font-size="41.667" transform="matrix(.737344 0 0 .737344 -7.04294 29.6292)" x="123.457" y="42.886">B<tspan x="156.009 190.596 225.183 257.735 292.321" y="42.886 42.886 42.886 42.886 42.886">yteSe</tspan>ntinel</text></svg>